<svg width="184" height="26" viewBox="0 0 184 26" fill="none" xmlns="http://www.w3.org/2000/svg">
<path d="M16.0136 20.528H7.81939L6.38839 25.1617H0L9.09706 0.35775H14.7188L23.884 25.1617H17.4616L16.0136 20.528ZM9.25038 15.9113H14.5826L11.908 7.30831L9.25038 15.9113Z" fill="#656980"/>
<path d="M45.4001 16.7631C45.3206 18.4894 44.855 20.0169 44.0032 21.3457C43.1514 22.6632 41.9532 23.6853 40.4087 24.4122C38.8755 25.139 37.1208 25.5024 35.1446 25.5024C31.8852 25.5024 29.3184 24.4405 27.4445 22.3168C25.5706 20.193 24.6336 17.1947 24.6336 13.3219V12.0953C24.6336 9.66492 25.0538 7.54114 25.8943 5.72399C26.746 3.8955 27.9669 2.48721 29.5569 1.49914C31.1469 0.499714 32.9868 0 35.0765 0C38.0861 0 40.5052 0.794999 42.3337 2.385C44.1622 3.96364 45.2014 6.14421 45.4512 8.92671H39.4888C39.4433 7.41621 39.0629 6.3316 38.3474 5.67289C37.6319 5.01417 36.5416 4.68482 35.0765 4.68482C33.5887 4.68482 32.4984 5.24132 31.8057 6.35432C31.1129 7.46731 30.7494 9.24471 30.7154 11.6865V13.4412C30.7154 16.0874 31.0447 17.9783 31.7034 19.1141C32.3735 20.2498 33.5206 20.8176 35.1446 20.8176C36.5189 20.8176 37.5694 20.4939 38.2963 19.8466C39.0231 19.1992 39.4093 18.1714 39.4547 16.7631H45.4001Z" fill="#656980"/>
<path d="M67.1888 4.97442H59.7442V25.1617H53.7647V4.97442H46.4564V0.35775H67.1888V4.97442Z" fill="#656980"/>
<path d="M76.0985 25.1617H70.136V0.35775H76.0985V25.1617Z" fill="#656980"/>
<path d="M89.8803 18.4156L94.8207 0.35775H101.499L93.1512 25.1617H86.6095L78.3301 0.35775H84.957L89.8803 18.4156Z" fill="#656980"/>
<path d="M118.705 14.6507H109.301V20.5621H120.408V25.1617H103.322V0.35775H120.442V4.97442H109.301V10.2044H118.705V14.6507Z" fill="#656980"/>
<path d="M123.454 25.1447V0.340714H129.978C132.647 0.340714 134.663 0.885856 136.026 1.97614C137.4 3.05507 138.087 4.62803 138.087 6.69503C138.087 8.19417 137.707 9.43778 136.946 10.4258C136.185 11.4139 135.112 12.0442 133.726 12.3168C135.294 12.5212 136.6 13.2027 137.644 14.3611C138.689 15.5082 139.212 16.8256 139.212 18.3134C139.212 20.4258 138.525 22.0953 137.15 23.3219C135.788 24.5371 133.885 25.1447 131.443 25.1447H123.454ZM124.374 12.896V24.2248H131.546C133.647 24.2248 135.294 23.708 136.486 22.6745C137.69 21.6297 138.292 20.1873 138.292 18.3474C138.292 16.7802 137.713 15.4911 136.554 14.4803C135.396 13.4582 133.846 12.9301 131.903 12.896H124.374ZM124.374 11.9761H130.319C132.579 11.9761 134.283 11.5445 135.43 10.6814C136.577 9.80688 137.15 8.45539 137.15 6.62689C137.15 3.10618 134.828 1.31743 130.183 1.26064H124.374V11.9761Z" fill="white"/>
<path d="M162.074 14.5996C162.074 16.7461 161.688 18.6484 160.915 20.3066C160.154 21.9533 159.064 23.231 157.644 24.1396C156.225 25.0368 154.589 25.4854 152.738 25.4854C149.944 25.4854 147.684 24.4917 145.958 22.5042C144.232 20.5167 143.368 17.8364 143.368 14.4633V10.8858C143.368 8.75067 143.749 6.85403 144.51 5.19589C145.282 3.53775 146.378 2.26007 147.798 1.36286C149.229 0.454285 150.864 0 152.704 0C154.555 0 156.191 0.454285 157.61 1.36286C159.041 2.26007 160.143 3.54343 160.915 5.21292C161.688 6.87107 162.074 8.76203 162.074 10.8858V14.5996ZM161.154 10.8517C161.154 7.85346 160.393 5.45142 158.871 3.64564C157.349 1.8285 155.293 0.919928 152.704 0.919928C150.149 0.919928 148.11 1.82282 146.588 3.6286C145.066 5.42303 144.305 7.87049 144.305 10.971V14.5996C144.305 16.5757 144.646 18.3247 145.328 19.8466C146.02 21.3571 147.003 22.5212 148.275 23.3389C149.547 24.1566 151.035 24.5655 152.738 24.5655C155.328 24.5655 157.377 23.6626 158.888 21.8568C160.398 20.051 161.154 17.5865 161.154 14.4633V10.8517Z" fill="white"/>
<path d="M174.373 11.7717L182.38 0.340714H183.539L174.953 12.4872L183.862 25.1447H182.721L174.373 13.2027L165.992 25.1447H164.885L173.794 12.4872L165.208 0.340714H166.367L174.373 11.7717Z" fill="white"/>
</svg>
